#!OML:ASF H:\Terrain\Patient Classification 1\PLAYGROUND\JustinFriday\JustinFriday.ASF
:FULLY-SPECIFIED
:DEGREES
2183
root 14.2887 27.3856 42.3833 -227.994 6.51259 -175.747
lowerback 42.6426 -7.14238 -6.01713
upperback 12.382 -6.52322 1.21637
thorax -5.42482 -1.17911 6.66419
lowerneck 3.48308 6.44776 -33.1038
upperneck 14.0397 8.85084 10.176
head 2.08361 3.82811 8.32782
rclavicle -2.36958e-014 3.33958e-014
rhumerus 63.5614 20.477 -74.9961
rradius 98.4224
rwrist -349.175
rhand -18.6793 -21.4935
rfingers 7.12502
rthumb 7.61469 -51.3364
lclavicle -2.36958e-014 3.33958e-014
lhumerus 54.501 20.5805 65.3433
lradius 92.8116
lwrist -20.7249
lhand 12.2488 8.32184
lfingers 7.12502
lthumb 37.256 34.3197
rfemur -55.4309 -11.4166 27.5054
rtibia 94.3634
rfoot 7.74457 -4.67553
rtoes 15.5639
lfemur -97.4073 35.0631 -4.23194
ltibia 135.522
lfoot -147.414 134.124
ltoes -5.43085
2184
root 14.3287 27.3537 42.3467 -227.638 6.37108 -175.892
lowerback 42.5308 -7.11262 -6.07896
upperback 12.2271 -6.58238 1.22534
thorax -5.55055 -1.23237 6.73158
lowerneck 3.56536 6.49544 -33.4013
upperneck 13.9819 8.88586 10.2119
head 2.0402 3.84197 8.37243
rclavicle -6.26513e-014 7.95139e-016
rhumerus 64.0531 20.6216 -75.1492
rradius 98.6617
rwrist -349.419
rhand -18.3793 -21.9228
rfingers 7.12502
rthumb 7.90424 -51.755
lclavicle -6.26513e-014 7.95139e-016
lhumerus 54.8777 21.0151 65.5466
lradius 92.9273
lwrist -20.5348
lhand 12.3249 8.15028
lfingers 7.12502
lthumb 37.3279 34.1293
rfemur -54.914 -10.7334 27.2633
rtibia 93.4503
rfoot 8.50809 -5.1666
rtoes 17.3903
lfemur -96.0877 33.6137 -3.76276
ltibia 134.161
lfoot -154.046 135.475
ltoes -5.45046
2185
root 14.3649 27.3195 42.3067 -227.36 6.38801 -175.949
lowerback 42.5394 -7.09315 -6.03245
upperback 12.0728 -6.59404 1.27127
thorax -5.72575 -1.25225 6.77027
lowerneck 3.74847 6.52104 -33.4767
upperneck 13.9078 8.8829 10.0627
head 2.00353 3.84235 8.32194
rclavicle 4.72176e-014 6.36111e-015
rhumerus 64.4878 20.8357 -75.4086
rradius 98.8838
rwrist -349.601
rhand -18.3811 -22.0925
rfingers 7.12502
rthumb 7.90257 -51.9248
lclavicle 4.72176e-014 6.36111e-015
lhumerus 55.2705 21.4518 65.8424
lradius 93.0832
lwrist -20.4165
lhand 12.6758 8.17157
lfingers 7.12502
lthumb 37.6596 34.0626
rfemur -54.2432 -9.97165 27.1257
rtibia 92.5395
rfoot 8.96473 -6.02069
rtoes 22.0927
lfemur -94.5797 32.5015 -3.10055
ltibia 132.944
lfoot -160.349 137.734
ltoes -6.00948
2186
root 14.3855 27.2545 42.2347 -226.737 6.13465 -175.628
lowerback 42.0844 -7.44095 -5.46145
upperback 11.9021 -6.87865 1.28759
thorax -5.81647 -1.41317 6.59965
lowerneck 3.80649 6.48997 -33.8909
upperneck 14.2243 8.8309 10.3529
head 2.07728 3.7935 8.49472
rclavicle -2.83423e-014 7.15625e-015
rhumerus 64.8929 21.0466 -75.7711
rradius 99.1196
rwrist -349.393
rhand -18.1768 -22.4454
rfingers 7.12502
rthumb 8.09972 -52.2702
lclavicle -2.83423e-014 7.15625e-015
lhumerus 55.6972 21.811 66.1281
lradius 93.0663
lwrist -20.5649
lhand 12.7263 8.05668
lfingers 7.12502
lthumb 37.7073 33.9349
rfemur -54.0219 -10.0222 27.4806
rtibia 91.7468
rfoot 10.0603 -5.7375
rtoes 18.7168
lfemur -94.2889 31.071 -2.9049
ltibia 132.102
lfoot -166.198 140.461
ltoes -8.47974
2187
root 14.4118 27.1893 42.1652 -226.192 6.0011 -175.328
lowerback 41.7449 -7.711 -4.97692
upperback 11.749 -7.08613 1.345
thorax -5.91568 -1.53343 6.49
lowerneck 3.83057 6.59692 -34.1845
upperneck 14.3279 8.94779 10.6004
head 2.05788 3.84407 8.61516
rclavicle 8.49804e-014 -6.2816e-014
rhumerus 65.401 21.2486 -76.0468
rradius 99.2589
rwrist -348.968
rhand -17.8013 -22.8392
rfingers 7.12502
rthumb 8.46214 -52.6496
lclavicle 8.49804e-014 -6.2816e-014
lhumerus 56.1773 22.1631 66.3978
lradius 92.9726
lwrist -20.6224
lhand 12.6264 8.06553
lfingers 7.12502
lthumb 37.6129 33.969
rfemur -53.7816 -9.84677 27.8025
rtibia 91.064
rfoot 10.8 -5.97576
rtoes 16.5365
lfemur -93.6822 30.0112 -2.79232
ltibia 131.133
lfoot -169.962 144.591
ltoes -7.33709
2188
root 14.4453 27.1335 42.1057 -225.666 5.62626 -175.286
lowerback 41.4427 -7.82509 -4.91249
upperback 11.5706 -7.28678 1.36835
thorax -6.00597 -1.66167 6.55527
lowerneck 4.18877 7.05928 -33.7947
upperneck 13.4985 9.37639 10.336
head 1.68108 4.11497 8.38202
rclavicle 5.60417e-014 -4.53229e-014
rhumerus 65.8978 21.4537 -76.3948
rradius 99.3342
rwrist -348.647
rhand -17.5428 -22.7385
rfingers 7.12502
rthumb 8.71158 -52.5388
lclavicle 5.60417e-014 -4.53229e-014
lhumerus 56.7177 22.4833 66.7985
lradius 93.0424
lwrist -20.5819
lhand 12.943 8.23026
lfingers 7.12502
lthumb 37.912 34.0534
rfemur -53.6792 -9.69339 27.7751
rtibia 90.5024
rfoot 11.4602 -6.35293
rtoes 13.9936
lfemur -92.6023 28.6816 -2.93002
ltibia 130
lfoot -173.027 148.913
ltoes -7.58186
